<svg width="160" height="160" viewBox="0 0 128 128" fill="none" xmlns="http://www.w3.org/2000/svg">
  <defs>
    <linearGradient id="bgA-raven" x1="20" y1="12" x2="108" y2="118" gradientUnits="userSpaceOnUse">
      <stop stop-color="#28101A"/>
      <stop offset="1" stop-color="#110A10"/>
    </linearGradient>
    <linearGradient id="halo-raven" x1="24" y1="12" x2="100" y2="112" gradientUnits="userSpaceOnUse">
      <stop stop-color="#FF8B8B" stop-opacity="0.85"/>
      <stop offset="1" stop-color="#D8576F" stop-opacity="0.85"/>
    </linearGradient>
    <linearGradient id="coat-raven" x1="32" y1="74" x2="95" y2="116" gradientUnits="userSpaceOnUse">
      <stop stop-color="#FF8B8B" stop-opacity="0.92"/>
      <stop offset="1" stop-color="#D8576F" stop-opacity="0.92"/>
    </linearGradient>
    <radialGradient id="face-raven" cx="0" cy="0" r="1" gradientUnits="userSpaceOnUse" gradientTransform="translate(63 55) rotate(90) scale(34 26)">
      <stop stop-color="#FFD6D6"/>
      <stop offset="1" stop-color="#E1B59A"/>
    </radialGradient>
  </defs>
  <rect x="4" y="4" width="120" height="120" rx="38" fill="url(#bgA-raven)"/>
  <rect x="8" y="8" width="112" height="112" rx="34" stroke="rgba(255,255,255,0.10)" stroke-width="1.8"/>
  <circle cx="64" cy="55" r="39" fill="url(#halo-raven)" opacity="0.13"/>
  <circle cx="64" cy="56" r="34" fill="#090E1D" opacity="0.55"/>
  <ellipse cx="64" cy="103" rx="31" ry="10" fill="#09101E" opacity="0.35"/>
  <path d="M34 95C34 77 47 66 64 66C81 66 94 77 94 95V106H34V95Z" fill="url(#coat-raven)"/>
  <path d="M46 107H82" stroke="rgba(255,255,255,0.13)" stroke-width="3" stroke-linecap="round"/>
  <path d="M50 78L64 90L78 78" stroke="#F3D37C" stroke-width="3.5" stroke-linecap="round" stroke-linejoin="round"/>
  <ellipse cx="64" cy="55" rx="24" ry="27" fill="url(#face-raven)"/>
  <path d="M41 55C42 36 51 26 64 26C77 26 86 36 87 55" fill="#0D101C" opacity="0.18"/>
  <path d="M48 48C52 44 56 42 60 42" stroke="#0C1324" stroke-width="3" stroke-linecap="round"/>
  <path d="M68 42C72 42 76 44 80 48" stroke="#0C1324" stroke-width="3" stroke-linecap="round"/>
  <ellipse cx="54" cy="57" rx="7" ry="8" fill="#F8FBFF"/>
  <ellipse cx="74" cy="57" rx="7" ry="8" fill="#F8FBFF"/>
  <ellipse cx="54" cy="58" rx="3.5" ry="4.5" fill="#243A66"/>
  <ellipse cx="74" cy="58" rx="3.5" ry="4.5" fill="#243A66"/>
  <circle cx="55" cy="57" r="1.2" fill="#F8FBFF"/>
  <circle cx="75" cy="57" r="1.2" fill="#F8FBFF"/>
  <path d="M58 72C61 74 67 74 70 72" stroke="#B56770" stroke-width="2.8" stroke-linecap="round"/>
  <path d="M64 60V67" stroke="#D39C8E" stroke-width="2.2" stroke-linecap="round"/>
  <circle cx="38" cy="38" r="5" fill="#FF8B8B" opacity="0.25"/>
  <circle cx="92" cy="32" r="4" fill="#F3D37C" opacity="0.24"/>
  <circle cx="94" cy="96" r="5" fill="#D8576F" opacity="0.16"/>
  <circle cx="29" cy="93" r="6" fill="#F3D37C" opacity="0.14"/>
  <path d="M33 46C37 24 54 16 77 21C72 13 57 10 44 18C36 23 31 34 33 46Z" fill="#140912"/>
<path d="M44 33L55 28L68 30L80 40L75 44L66 39L53 38L44 33Z" fill="#CF4B86" opacity="0.18"/>
<path d="M52 76H76L72 95H56L52 76Z" fill="#28101A"/>
<path d="M46 88L56 78" stroke="#F3D37C" stroke-width="3" stroke-linecap="round"/>

  <path d="M22 20C30 12 44 8 64 8" stroke="rgba(255,255,255,0.14)" stroke-width="2" stroke-linecap="round"/>
  <path d="M106 98C99 109 87 118 68 120" stroke="rgba(255,255,255,0.10)" stroke-width="2" stroke-linecap="round"/>
</svg>
