<svg xmlns="http://www.w3.org/2000/svg" viewBox="0 0 240 320" fill="none">
  <rect x="9" y="9" width="222" height="302" rx="28" fill="#121214" stroke="#D4AF37" stroke-width="4"/>
  <path d="M30 40h180v240H30z" stroke="#8B1E1E" stroke-width="2" opacity="0.8"/>
  <path d="M120 68c28 0 52 12 68 30-6 22-28 42-68 42S58 120 52 98c16-18 40-30 68-30Z" fill="#2A0A0A"/>
  <path d="M78 98c10-16 26-24 42-24 17 0 32 8 42 24" stroke="#D4AF37" stroke-width="4" stroke-linecap="round"/>
  <path d="M92 112c6 8 16 12 28 12s22-4 28-12" stroke="#F8F3E7" stroke-width="4" stroke-linecap="round"/>
  <circle cx="102" cy="98" r="6" fill="#E74C3C"/>
  <circle cx="138" cy="98" r="6" fill="#E74C3C"/>
  <path d="M70 175l96-40-22 56 26 10-58 52-42-10 18-42-28-26 10 0Z" fill="#B11226"/>
  <path d="M70 175l96-40" stroke="#F8F3E7" stroke-width="3"/>
  <path d="M54 280h132" stroke="#D4AF37" stroke-width="3"/>
  <text x="120" y="288" font-size="30" text-anchor="middle" fill="#F8F3E7" font-family="Arial">MAFIA</text>
</svg>