<svg width="64" height="64" viewBox="0 0 64 64" fill="none" xmlns="http://www.w3.org/2000/svg">
  <defs>
    <linearGradient id="gold_players" x1="8" y1="8" x2="56" y2="56" gradientUnits="userSpaceOnUse">
      <stop stop-color="#FFF4C2"/>
      <stop offset="0.45" stop-color="#D8B15B"/>
      <stop offset="1" stop-color="#8D6322"/>
    </linearGradient>
    <linearGradient id="shadow_players" x1="12" y1="12" x2="52" y2="52" gradientUnits="userSpaceOnUse">
      <stop stop-color="#0B0B10"/>
      <stop offset="1" stop-color="#1B1723"/>
    </linearGradient>
    <filter id="glow_players" x="-20%" y="-20%" width="140%" height="140%">
      <feGaussianBlur stdDeviation="1.8" result="blur"/>
      <feMerge>
        <feMergeNode in="blur"/>
        <feMergeNode in="SourceGraphic"/>
      </feMerge>
    </filter>
  </defs>
  <rect x="6" y="6" width="52" height="52" rx="18" fill="url(#shadow_players)" stroke="url(#gold_players)" stroke-width="1.5"/>
  <rect x="10" y="10" width="44" height="44" rx="14" fill="#0E0D14" opacity="0.78"/>
  <path d="M16 20C22 12 42 12 48 20" stroke="url(#gold_players)" stroke-width="1.2" opacity="0.5"/>
  <path d="M16 44C22 52 42 52 48 44" stroke="url(#gold_players)" stroke-width="1.2" opacity="0.28"/>
  <g filter="url(#glow_players)">
    <circle cx="25" cy="28" r="6" stroke="url(#gold_players)" stroke-width="2.4" fill="#14121A"/>
    <circle cx="39" cy="26" r="5" stroke="url(#gold_players)" stroke-width="2.1" fill="#14121A" opacity="0.9"/>
    <path d="M17 42C18.5 36.5 23 34 28 34C33 34 37.5 36.5 39 42" stroke="url(#gold_players)" stroke-width="2.4" stroke-linecap="round"/>
    <path d="M35 42C36 38.4 39 36.6 42.4 36.6C45.1 36.6 47.6 37.9 49 40.7" stroke="url(#gold_players)" stroke-width="2" stroke-linecap="round" opacity="0.75"/>
  </g>
</svg>
