<svg width="64" height="64" viewBox="0 0 64 64" fill="none" xmlns="http://www.w3.org/2000/svg">
  <defs>
    <linearGradient id="gold_room" x1="8" y1="8" x2="56" y2="56" gradientUnits="userSpaceOnUse">
      <stop stop-color="#FFF4C2"/>
      <stop offset="0.45" stop-color="#D8B15B"/>
      <stop offset="1" stop-color="#8D6322"/>
    </linearGradient>
    <linearGradient id="shadow_room" x1="12" y1="12" x2="52" y2="52" gradientUnits="userSpaceOnUse">
      <stop stop-color="#0B0B10"/>
      <stop offset="1" stop-color="#1B1723"/>
    </linearGradient>
    <filter id="glow_room" x="-20%" y="-20%" width="140%" height="140%">
      <feGaussianBlur stdDeviation="1.8" result="blur"/>
      <feMerge>
        <feMergeNode in="blur"/>
        <feMergeNode in="SourceGraphic"/>
      </feMerge>
    </filter>
  </defs>
  <rect x="6" y="6" width="52" height="52" rx="18" fill="url(#shadow_room)" stroke="url(#gold_room)" stroke-width="1.5"/>
  <rect x="10" y="10" width="44" height="44" rx="14" fill="#0E0D14" opacity="0.78"/>
  <path d="M16 20C22 12 42 12 48 20" stroke="url(#gold_room)" stroke-width="1.2" opacity="0.5"/>
  <path d="M16 44C22 52 42 52 48 44" stroke="url(#gold_room)" stroke-width="1.2" opacity="0.28"/>
  <g filter="url(#glow_room)">
    <path d="M18 22L32 16L46 22V42L32 48L18 42V22Z" stroke="url(#gold_room)" stroke-width="2.4" fill="#13111A"/>
    <path d="M32 16V48" stroke="url(#gold_room)" stroke-width="1.8" opacity="0.45"/>
    <path d="M18 22L32 28L46 22" stroke="url(#gold_room)" stroke-width="1.8" opacity="0.65"/>
    <circle cx="32" cy="32" r="3.4" fill="#D8B15B" opacity="0.26"/>
  </g>
</svg>
