<svg width="200" height="200" viewBox="0 0 120 120" fill="none" xmlns="http://www.w3.org/2000/svg">
  <defs>
    <linearGradient id="frame_broker" x1="10" y1="10" x2="110" y2="110">
      <stop stop-color="#FFF6C8"/>
      <stop offset="0.45" stop-color="#D1A858"/>
      <stop offset="1" stop-color="#6D4A19"/>
    </linearGradient>
    <radialGradient id="bg_broker" cx="0" cy="0" r="1" gradientUnits="userSpaceOnUse" gradientTransform="translate(60 40) rotate(90) scale(72)">
      <stop stop-color="#161521"/>
      <stop offset="1" stop-color="#3E1520"/>
    </radialGradient>
    <linearGradient id="cloth_broker" x1="34" y1="66" x2="86" y2="110">
      <stop stop-color="#6B2435"/>
      <stop offset="1" stop-color="#191820"/>
    </linearGradient>
    <linearGradient id="hair_broker" x1="28" y1="22" x2="92" y2="64">
      <stop stop-color="#2B221A"/>
      <stop offset="1" stop-color="#0F0D10"/>
    </linearGradient>
    <filter id="shadow_broker" x="-20%" y="-20%" width="140%" height="140%">
      <feDropShadow dx="0" dy="6" stdDeviation="6" flood-color="#000000" flood-opacity="0.28"/>
    </filter>
  </defs>
  <rect x="8" y="8" width="104" height="104" rx="30" fill="url(#bg_broker)" stroke="url(#frame_broker)" stroke-width="1.5"/>
  <rect x="13" y="13" width="94" height="94" rx="24" fill="#0D0C12" opacity="0.22"/>
  <path d="M22 28C28 16 43 10 60 10C80 10 95 18 99 31" stroke="url(#frame_broker)" stroke-width="1.2" opacity="0.28"/>
  <circle cx="92" cy="28" r="3" fill="#C84545" opacity="0.55"/>
  <circle cx="22" cy="84" r="2.7" fill="#C84545" opacity="0.35"/>
  <circle cx="86" cy="78" r="2.7" fill="#FFF6C8" opacity="0.24"/>
  <g filter="url(#shadow_broker)">
    <ellipse cx="60" cy="92" rx="29" ry="20" fill="url(#cloth_broker)"/>
    <path d="M35 90C40 77 49 71 60 71C71 71 80 77 85 90" fill="url(#cloth_broker)"/>
    <path d="M50 77L60 87L70 77" stroke="#FFF6C8" stroke-width="1.5" opacity="0.34"/>
    <ellipse cx="60" cy="55" rx="22" ry="25" fill="#F0D0B7"/>
    <path d="M38 48C39 31 48 23 60 23C74 23 82 31 82 47C78 42 73 39 68 39C62 36 55 36 49 39C45 40 42 43 38 48Z" fill="url(#hair_broker)"/>
    <path d="M38 48C42 36 49 31 60 31C72 31 79 37 82 48" stroke="#403329" stroke-width="1.2" opacity="0.4"/>
    <path d="M44 50C48 46 54 44 60 44C66 44 72 46 76 50" stroke="#2F251D" stroke-width="1.3" opacity="0.55"/>
    <path d="M34 43C38 41 43 41 46 43 M18 43C22 41 27 41 30 43" stroke="#1C1717" stroke-width="2" stroke-linecap="round"/>
    <ellipse cx="48" cy="54" rx="5.8" ry="6.4" fill="#FFFFFF"/>
    <ellipse cx="72" cy="54" rx="5.8" ry="6.4" fill="#FFFFFF"/>
    <ellipse cx="48" cy="54.5" rx="3.4" ry="3.8" fill="#26315B"/>
    <ellipse cx="72" cy="54.5" rx="3.4" ry="3.8" fill="#26315B"/>
    <circle cx="48" cy="55" r="1.45" fill="#121018"/>
    <circle cx="72" cy="55" r="1.45" fill="#121018"/>
    <circle cx="46.8" cy="53.3" r="0.8" fill="#FFFFFF" opacity="0.85"/>
    <circle cx="70.8" cy="53.3" r="0.8" fill="#FFFFFF" opacity="0.85"/>
    <path d="M58 58C59.6 60 60.5 60 62 58" stroke="#C28972" stroke-width="1.6" stroke-linecap="round"/>
    <path d="M26 61C31 64 36 63 40 59" stroke="#A55A56" stroke-width="2" stroke-linecap="round"/>
    <path d="M45 67C50 71 70 71 75 67" stroke="#FFF6C8" stroke-width="1.1" opacity="0.18"/>
  </g>
  <path d="M56 73H64" stroke="#FFF6C8" stroke-width="1.4"/>
  <path d="M52 77L60 86L68 77" fill="#50121D" stroke="#D7AA61" stroke-width="1.2"/>
  <circle cx="73" cy="74" r="2" fill="#D7AA61" opacity="0.7"/>
  <path d="M20 98C28 106 44 110 60 110C76 110 92 106 100 98" stroke="url(#frame_broker)" stroke-width="1.2" opacity="0.22"/>
</svg>